<svg aria-hidden="true" style="position: absolute; width: 0; height: 0; overflow: hidden;" version="1.1" xmlns="http://www.w3.org/2000/svg" xmlns:xlink="http://www.w3.org/1999/xlink">
<defs>

<symbol id="facebook" viewBox="0 0 18 32">
<path d="M13.328 5.312h2.928v-5.088c-0.512-0.064-2.24-0.224-4.256-0.224-4.224 0-7.104 2.656-7.104 7.52v4.48h-4.64v5.68h4.64v14.32h5.696v-14.304h4.464l0.704-5.696h-5.168v-3.92c0-1.648 0.448-2.768 2.736-2.768z"></path>
</symbol>

<symbol id="twitter" viewBox="0 0 36 32">
<path d="M35.556 4.978c-1.316 0.587-2.738 0.96-4.196 1.156 1.511-0.907 2.667-2.311 3.2-4.036-1.422 0.836-2.969 1.422-4.622 1.778-1.336-1.442-3.239-2.341-5.353-2.341-4.026 0-7.289 3.263-7.289 7.289 0 0.597 0.072 1.178 0.207 1.734l-0.010-0.050c-6.069-0.312-11.405-3.203-14.975-7.589l-0.030-0.038c-0.62 1.054-0.986 2.322-0.986 3.675 0 2.511 1.26 4.728 3.183 6.051l0.025 0.016c-1.156 0-2.311-0.356-3.289-0.889v0.071c0 3.556 2.524 6.489 5.849 7.164-0.576 0.164-1.237 0.258-1.92 0.258-0.491 0-0.97-0.049-1.433-0.141l0.046 0.008c0.976 2.915 3.649 4.992 6.818 5.066l0.009 0c-2.468 1.959-5.629 3.142-9.065 3.142-0.608 0-1.208-0.037-1.796-0.109l0.071 0.007c3.14 2.051 6.984 3.271 11.114 3.271 0.024 0 0.048-0 0.072-0h-0.004c13.422 0 20.747-11.111 20.747-20.747 0-0.32 0-0.64-0.036-0.942 1.458-1.031 2.667-2.311 3.662-3.787z"></path>
</symbol>

<symbol id="telegram" viewBox="0 0 32 32">
<path fill="#fff" style="fill: var(--color3, #fff)" d="M32 0l-32 18 10.227 3.787 15.773-14.787-12 16.187v8.813l5.733-6.693 7.267 2.693 5-28z"></path>
</symbol>

<symbol id="phone" viewBox="0 0 21 32">
<path d="M18.133 0h-14.933c-1.771 0-3.2 1.28-3.2 2.901v25.045c0 1.6 1.429 2.901 3.2 2.901h14.933c1.771 0 3.2-1.28 3.2-2.901v-25.045c0-1.621-1.429-2.901-3.2-2.901zM3.2 1.92h14.933c0.597 0 1.067 0.427 1.067 0.981v20.267h-17.067v-20.267c0-0.533 0.469-0.981 1.067-0.981zM18.133 28.949h-14.933c-0.597 0-1.067-0.427-1.067-0.981v-2.88h17.067v2.88c0 0.533-0.469 0.981-1.067 0.981z"></path>
</symbol>

<symbol id="mail" viewBox="0 0 47 32">
<path d="M42.182 0h-37.818c-2.415 0-4.364 1.745-4.364 3.956v23.68c0 2.153 1.949 3.927 4.364 3.927h37.818c2.415 0 4.364-1.745 4.364-3.927v-23.68c0-2.211-1.949-3.956-4.364-3.956zM42.182 2.618c0.204 0 0.378 0.058 0.582 0.116l-19.491 15.244-19.491-15.244c0.172-0.072 0.372-0.115 0.581-0.116h37.819zM42.182 28.945h-37.818c-0.815 0-1.455-0.582-1.455-1.309v-22.109l19.404 15.185c0.261 0.209 0.596 0.335 0.96 0.335s0.699-0.126 0.963-0.338l-0.003 0.002 19.404-15.185v22.109c0 0.756-0.64 1.338-1.455 1.338z"></path>
</symbol>

<symbol id="company6" viewBox="0 0 63 32">
<path d="M31.815 14.713c-0.256-0.354-0.41-0.797-0.41-1.276 0-0.051 0.002-0.102 0.005-0.153l-0 0.007v-2.048c0-0.633 0.135-1.109 0.405-1.436s0.725-0.498 1.387-0.498c0.612 0 1.052 0.142 1.308 0.427 0.284 0.356 0.42 0.782 0.384 1.223v0.484h-1.095v-0.484c0-0.164-0.007-0.32-0.036-0.484-0.018-0.114-0.074-0.213-0.156-0.284l-0.001-0c-0.097-0.068-0.218-0.109-0.348-0.109-0.018 0-0.035 0.001-0.052 0.002l0.002-0c-0.018-0.002-0.038-0.003-0.059-0.003-0.138 0-0.266 0.044-0.37 0.118l0.002-0.001c-0.090 0.080-0.154 0.187-0.177 0.309l-0.001 0.004c-0.028 0.171-0.043 0.341-0.043 0.512v2.489c-0.014 0.242 0.036 0.484 0.142 0.704 0.057 0.071 0.128 0.135 0.213 0.171 0.062 0.026 0.135 0.040 0.211 0.040 0.026 0 0.052-0.002 0.077-0.005l-0.003 0c0.142 0.014 0.284-0.028 0.398-0.114 0.085-0.078 0.142-0.185 0.164-0.299 0.021-0.164 0.036-0.334 0.036-0.498v-0.512h1.095v0.462c0.036 0.462-0.1 0.91-0.377 1.294-0.256 0.306-0.683 0.455-1.316 0.455-0.64 0-1.116-0.164-1.387-0.498zM36.402 14.734c-0.284-0.32-0.427-0.782-0.427-1.401v-2.169c0-0.612 0.142-1.074 0.427-1.387 0.277-0.313 0.74-0.469 1.394-0.469 0.64 0 1.109 0.156 1.387 0.469s0.42 0.775 0.42 1.387v2.162c0 0.604-0.142 1.074-0.427 1.394-0.284 0.327-0.74 0.484-1.38 0.484s-1.116-0.164-1.394-0.476zM38.308 14.215c0.1-0.199 0.142-0.427 0.128-0.64v-2.645c0.014-0.213-0.028-0.427-0.128-0.626-0.056-0.078-0.13-0.139-0.217-0.176l-0.003-0.001c-0.063-0.026-0.136-0.041-0.212-0.041-0.028 0-0.055 0.002-0.082 0.006l0.003-0c-0.023-0.003-0.050-0.005-0.077-0.005-0.077 0-0.151 0.015-0.218 0.042l0.004-0.001c-0.093 0.039-0.17 0.1-0.227 0.176l-0.001 0.001c-0.1 0.192-0.142 0.405-0.135 0.626v2.66c-0.014 0.213 0.036 0.441 0.135 0.64 0.132 0.131 0.314 0.212 0.516 0.212s0.383-0.081 0.516-0.212l-0 0v-0.014zM40.924 9.38h1.188l0.889 3.982 0.91-3.982h1.152l0.121 5.76h-0.853l-0.092-4.004-0.882 3.996h-0.683l-0.91-4.011-0.085 4.011h-0.86l0.107-5.76zM46.507 9.38h1.849c1.067 0 1.6 0.54 1.6 1.636 0 1.038-0.569 1.564-1.685 1.564h-0.626v2.56h-1.138v-5.76zM48.085 11.84c0.029 0.003 0.062 0.005 0.096 0.005 0.204 0 0.392-0.072 0.539-0.191l-0.002 0.001c0.128-0.192 0.185-0.427 0.164-0.647 0-0.178-0.014-0.356-0.057-0.526-0.018-0.060-0.048-0.113-0.086-0.157l0 0.001c-0.039-0.046-0.087-0.084-0.14-0.113l-0.003-0.001c-0.156-0.071-0.334-0.107-0.512-0.092h-0.441v1.721h0.441zM51.598 9.38h1.223l1.252 5.76h-1.067l-0.242-1.33h-1.095l-0.249 1.323h-1.081l1.259-5.76zM52.644 13.141l-0.427-2.418-0.427 2.418h0.853zM55.090 9.38h0.796l1.529 3.278v-3.271h0.946v5.76h-0.761l-1.536-3.435v3.428h-0.974v-5.76zM60.572 12.942l-1.266-3.556h1.067l0.782 2.276 0.711-2.276h1.045l-1.252 3.556v2.19h-1.095v-2.19zM33.572 17.65v0.299h-0.924v2.347h-0.391v-2.347h-0.939v-0.299h2.254zM36.487 20.288h-0.299c-0.004 0-0.009 0.001-0.014 0.001-0.027 0-0.052-0.008-0.072-0.022l0 0c-0.022-0.016-0.039-0.038-0.049-0.063l-0-0.001-0.27-0.626h-1.287l-0.27 0.626c-0.009 0.028-0.024 0.052-0.043 0.071l0-0c-0.021 0.017-0.048 0.027-0.078 0.028h-0.306l1.138-2.638h0.398l1.152 2.631zM34.603 19.314h1.074l-0.455-1.081c-0.029-0.067-0.058-0.15-0.082-0.235l-0.003-0.014-0.043 0.142-0.036 0.114-0.455 1.067zM38.457 20.032h0.213c0.125-0.010 0.241-0.038 0.349-0.081l-0.008 0.003 0.156-0.071v-0.59h-0.491c-0.019-0.009-0.034-0.024-0.042-0.042l-0-0.001-0.007-0.028v-0.199h0.882v1.010c-0.216 0.144-0.475 0.241-0.754 0.27l-0.007 0.001c-0.114 0.014-0.22 0.021-0.334 0.021-0.199 0-0.391-0.036-0.569-0.1-0.501-0.178-0.854-0.649-0.854-1.202 0-0.015 0-0.030 0.001-0.045l-0 0.002c-0.001-0.020-0.002-0.044-0.002-0.069 0-0.356 0.154-0.676 0.399-0.898l0.001-0.001c0.121-0.121 0.277-0.213 0.448-0.277 0.178-0.064 0.383-0.101 0.597-0.101 0.116 0 0.229 0.011 0.339 0.032l-0.011-0.002c0.187 0.029 0.354 0.089 0.505 0.175l-0.007-0.004c0.071 0.036 0.142 0.085 0.199 0.142l-0.107 0.156c-0.009 0.015-0.021 0.027-0.035 0.035l-0 0c-0.015 0.009-0.034 0.014-0.053 0.014-0.001 0-0.002-0-0.004-0h0c-0.026-0.001-0.051-0.009-0.072-0.022l0.001 0-0.107-0.064c-0.185-0.099-0.404-0.157-0.637-0.157-0.164 0-0.322 0.029-0.468 0.082l0.010-0.003c-0.253 0.094-0.45 0.289-0.545 0.534l-0.002 0.006c-0.1 0.284-0.1 0.59 0 0.875 0.105 0.251 0.306 0.445 0.555 0.538l0.007 0.002c0.142 0.050 0.299 0.071 0.455 0.057zM42.091 19.989h1.244v0.299h-1.628v-2.631h0.391l-0.007 2.332zM44.629 20.288h-0.391v-2.631h0.391v2.631zM46.080 17.664l0.057 0.050 1.664 1.991v-2.062h0.341v2.645h-0.199c-0.028 0-0.057 0-0.085-0.014-0.022-0.014-0.041-0.030-0.057-0.049l-0-0-1.664-1.991v2.055h-0.327v-2.631h0.27zM51.008 17.65v0.292h-1.372v0.875h1.116v0.277h-1.116v0.903h1.38v0.284h-1.778v-2.631h1.778zM10.169 1.351l17.308 4.501v15.787l-17.308-4.501v-15.787zM9.060 0v17.906l19.527 5.092v-17.92l-19.527-5.077z"></path>
<path d="M19.527 31.31l-19.527-5.092v-17.906l19.527 5.084v17.913z"></path>
<path d="M9.387 1.138l17.081 4.459-7.268 6.663-17.081-4.452 7.268-6.67zM9.060 0l-9.060 8.313 19.527 5.084 9.060-8.313-19.527-5.084zM20.622 30.293l7.964-7.296-7.964-2.076v9.372z"></path>
</symbol>

<symbol id="company5" viewBox="0 0 40 32">
<path d="M3.057 26.744c0.157 0.191 0.238 0.436 0.232 0.681 0.001 0.018 0.002 0.039 0.002 0.060 0 0.322-0.14 0.611-0.361 0.811l-0.001 0.001c-0.306 0.232-0.681 0.34-1.062 0.32h-1.866v-4.357h1.825c0.361-0.027 0.722 0.075 1.014 0.286 0.218 0.184 0.356 0.457 0.356 0.762 0 0.019-0.001 0.039-0.002 0.058l0-0.003c0.014 0.238-0.068 0.477-0.211 0.667-0.143 0.17-0.34 0.293-0.558 0.34 0.252 0.048 0.477 0.177 0.633 0.374zM0.865 26.083h0.783c0.177 0.014 0.354-0.041 0.497-0.143 0.106-0.095 0.172-0.232 0.172-0.385 0-0.015-0.001-0.031-0.002-0.046l0 0.002c0.001-0.009 0.001-0.019 0.001-0.029 0-0.155-0.066-0.295-0.171-0.393l-0-0c-0.124-0.095-0.282-0.152-0.452-0.152-0.020 0-0.041 0.001-0.061 0.002l0.003-0h-0.769v1.144zM2.226 27.758c0.11-0.1 0.178-0.244 0.178-0.403 0-0.014-0.001-0.028-0.002-0.041l0 0.002c0.001-0.011 0.001-0.024 0.001-0.037 0-0.164-0.071-0.311-0.185-0.412l-0.001-0c-0.157-0.116-0.34-0.17-0.531-0.157h-0.817v1.198h0.824c0.191 0.014 0.374-0.041 0.524-0.15zM6.788 28.616l-1.014-1.702h-0.381v1.702h-0.878v-4.357h1.661c0.409-0.034 0.824 0.102 1.151 0.368 0.245 0.251 0.396 0.595 0.396 0.974 0 0.313-0.103 0.601-0.276 0.834l0.003-0.004c-0.204 0.238-0.483 0.395-0.79 0.443l1.083 1.743h-0.953zM5.392 26.315h0.715c0.497 0 0.749-0.218 0.749-0.654 0-0.008 0.001-0.018 0.001-0.028 0-0.18-0.073-0.344-0.191-0.462v0c-0.157-0.136-0.354-0.197-0.558-0.177h-0.729v1.328zM11.574 27.738h-1.75l-0.306 0.885h-0.919l1.6-4.317h0.994l1.593 4.31h-0.919l-0.293-0.878zM11.336 27.077l-0.64-1.838-0.633 1.838h1.273zM17.552 28.616h-0.872l-1.947-2.962v2.962h-0.865v-4.357h0.865l1.947 2.975v-2.982h0.872v4.357zM22.502 27.574c-0.177 0.327-0.456 0.599-0.783 0.769-0.381 0.191-0.797 0.286-1.226 0.272h-1.539v-4.357h1.539c0.429-0.014 0.844 0.082 1.226 0.272 0.327 0.163 0.606 0.429 0.783 0.749 0.172 0.334 0.273 0.729 0.273 1.147s-0.101 0.813-0.28 1.162l0.007-0.014zM21.508 27.466c0.238-0.278 0.383-0.641 0.383-1.038s-0.145-0.761-0.384-1.040l0.002 0.002c-0.264-0.234-0.614-0.377-0.997-0.377-0.033 0-0.065 0.001-0.097 0.003l0.004-0h-0.599v2.826h0.606c0.395 0.027 0.783-0.109 1.089-0.374zM12.112 0s11.2 4.248 10.962 10.39v10.39s-11.193-4.248-10.962-10.39v-10.39zM33.055 18.349c2.111-1.464 4.562-2.369 7.115-2.635v-3.254c-2.994 1.183-5.436 3.229-7.079 5.829l-0.035 0.060z"></path>
<path d="M31.782 19.329c1.748-3.488 4.693-6.161 8.283-7.516l0.105-0.035v-9.368s-15.952 6.046-15.612 14.795v14.795s0.708-0.272 1.825-0.776c0-0.477 0-0.953 0.054-1.43 0.349-4.206 2.341-7.888 5.324-10.447l0.021-0.017z"></path>
<path d="M30.264 24.824c0.088-1.021 0.272-2.043 0.558-3.030-2.038 2.402-3.302 5.516-3.377 8.924l-0 0.016c1.297-0.626 2.3-1.168 3.281-1.745l-0.217 0.118c-0.189-0.905-0.298-1.945-0.298-3.011 0-0.448 0.019-0.891 0.057-1.329l-0.004 0.057zM30.897 24.878c-0.102 1.294-0.034 2.601 0.204 3.881 4.357-2.621 9.253-6.666 9.062-11.554v-0.429c-3.246 0.376-6.108 1.791-8.297 3.899l0.005-0.004c-0.502 1.234-0.848 2.663-0.97 4.155l-0.003 0.052z"></path>
</symbol>

<symbol id="company4" viewBox="0 0 64 32">
<path d="M9.967 9.701c-1.819 0-3.294 1.35-3.294 3.021s1.475 3.021 3.286 3.021c1.826 0 3.294-1.35 3.294-3.021s-1.467-3.021-3.286-3.021zM34.263 8.741c-0.016-2.318-1.015-4.542-2.802-6.174-1.764-1.593-4.113-2.568-6.69-2.568-0.013 0-0.027 0-0.040 0h0.002c-2.529 0-4.948 0.929-6.736 2.56-1.698 1.527-2.769 3.723-2.794 6.169l-0 0.005v12.769s19.044-1.943 19.052-12.761zM0 25.694c0 1.616 0.702 3.161 1.951 4.293 1.229 1.114 2.868 1.795 4.666 1.795 0.006 0 0.012 0 0.018-0h-0.001c1.748-0.008 3.434-0.648 4.675-1.795 1.183-1.061 1.93-2.588 1.951-4.289l0-0.004v-8.874s-13.261 1.35-13.261 8.874zM6.634 27.286c-0.351 0-0.687-0.094-0.968-0.265-0.28-0.171-0.5-0.416-0.636-0.708l-0.004-0.010c-0.084-0.179-0.133-0.389-0.133-0.61 0-0.107 0.011-0.212 0.033-0.312l-0.002 0.010c0.072-0.326 0.238-0.607 0.467-0.819l0.001-0.001c0.328-0.286 0.761-0.461 1.234-0.461 0.235 0 0.46 0.043 0.668 0.122l-0.013-0.004c0.328 0.117 0.601 0.328 0.788 0.585 0.184 0.246 0.294 0.556 0.294 0.892 0 0.446-0.195 0.846-0.503 1.12l-0.002 0.001c-0.327 0.29-0.759 0.467-1.233 0.468h-0zM20.090 26.404h-1.319v1.358h-0.687v-3.325h2.17v0.554h-1.483v0.859h1.319v0.554zM23.383 26.17c0 0.336-0.055 0.624-0.172 0.866-0.206 0.464-0.663 0.781-1.194 0.781-0.016 0-0.033-0-0.049-0.001l0.002 0c-0.014 0.001-0.030 0.001-0.046 0.001-0.529 0-0.986-0.31-1.199-0.758l-0.003-0.008c-0.109-0.236-0.172-0.513-0.172-0.804 0-0.019 0-0.038 0.001-0.058l-0 0.003v-0.164c0-0.328 0.062-0.617 0.18-0.859 0.213-0.464 0.674-0.781 1.209-0.781 0.011 0 0.022 0 0.033 0l-0.002-0c0.273 0 0.523 0.070 0.734 0.203 0.219 0.133 0.39 0.32 0.507 0.57s0.172 0.539 0.172 0.859v0.156zM22.689 26.021c0-0.343-0.062-0.609-0.187-0.796-0.111-0.161-0.295-0.266-0.503-0.266-0.010 0-0.019 0-0.029 0.001l0.001-0c-0.234 0-0.406 0.086-0.531 0.265s-0.195 0.445-0.195 0.788v0.156c0 0.343 0.062 0.609 0.187 0.796s0.312 0.281 0.546 0.281c0.226 0 0.406-0.086 0.523-0.265 0.125-0.187 0.187-0.445 0.187-0.796v-0.156zM25.616 26.888c0-0.125-0.047-0.226-0.14-0.297-0.141-0.092-0.305-0.167-0.479-0.216l-0.012-0.003c-0.234-0.078-0.429-0.156-0.57-0.234-0.375-0.195-0.562-0.468-0.562-0.82 0-0.18 0.047-0.336 0.148-0.476s0.25-0.258 0.437-0.336c0.187-0.078 0.406-0.117 0.64-0.117s0.453 0.047 0.632 0.133c0.347 0.147 0.586 0.485 0.586 0.879 0 0.007-0 0.013-0 0.020l0-0.001h-0.679c0-0.156-0.047-0.273-0.148-0.359-0.099-0.078-0.225-0.126-0.363-0.126-0.012 0-0.025 0-0.037 0.001l0.002-0c-0.011-0.001-0.023-0.001-0.036-0.001-0.133 0-0.255 0.041-0.356 0.112l0.002-0.001c-0.085 0.062-0.14 0.161-0.14 0.273 0 0 0 0 0 0v0c0 0.109 0.047 0.203 0.156 0.273 0.109 0.078 0.273 0.148 0.484 0.211 0.39 0.117 0.679 0.258 0.859 0.437 0.172 0.172 0.265 0.39 0.265 0.648 0 0.289-0.109 0.515-0.328 0.679-0.219 0.156-0.515 0.242-0.882 0.242-0.006 0-0.014 0-0.022 0-0.246 0-0.48-0.052-0.692-0.145l0.011 0.004c-0.382-0.144-0.648-0.506-0.648-0.93 0-0.008 0-0.016 0-0.023l-0 0.001h0.695c0 0.367 0.219 0.546 0.656 0.546 0.156 0 0.289-0.023 0.382-0.094 0.094-0.062 0.14-0.156 0.14-0.281zM29.276 24.991h-1.022v2.771h-0.687v-2.771h-1.007v-0.554h2.716v0.554zM31.672 26.318h-1.327v0.898h1.553v0.546h-2.24v-3.325h2.224v0.554h-1.522v0.796h1.319v0.539zM33.53 26.552h-0.546v1.21h-0.687v-3.325h1.241c0.39 0 0.702 0.086 0.913 0.265 0.211 0.172 0.312 0.421 0.312 0.741 0 0.226-0.047 0.414-0.141 0.57-0.101 0.148-0.25 0.265-0.453 0.359l0.726 1.358v0.031h-0.741l-0.624-1.218zM32.983 25.99h0.554c0.172 0 0.312-0.047 0.406-0.133 0.087-0.085 0.141-0.204 0.141-0.335 0-0.008-0-0.017-0.001-0.025l0 0.001c0-0.156-0.047-0.281-0.141-0.375-0.078-0.086-0.219-0.133-0.406-0.133h-0.546v0.999zM37.143 26.591v1.171h-0.687v-3.325h1.296c0.258 0 0.468 0.047 0.663 0.133 0.187 0.094 0.336 0.226 0.437 0.39 0.101 0.172 0.156 0.359 0.156 0.578 0 0.328-0.117 0.585-0.336 0.773-0.226 0.187-0.531 0.281-0.929 0.281h-0.601zM37.143 26.037h0.609c0.187 0 0.32-0.047 0.421-0.133 0.094-0.078 0.141-0.203 0.141-0.359 0.001-0.009 0.001-0.020 0.001-0.031 0-0.141-0.054-0.27-0.142-0.367l0 0c-0.097-0.097-0.231-0.156-0.379-0.156-0.007 0-0.013 0-0.020 0l0.001-0h-0.632v1.046zM41.483 26.326h-1.319v0.89h1.545v0.546h-2.232v-3.325h2.232v0.554h-1.545v0.796h1.319v0.539zM44.667 24.991h-1.015v2.771h-0.695v-2.771h-1.007v-0.554h2.716v0.554zM47.063 26.318h-1.327v0.898h1.545v0.546h-2.232v-3.325h2.232v0.554h-1.545v0.796h1.319v0.539zM48.929 26.552h-0.546v1.21h-0.687v-3.325h1.233c0.39 0 0.702 0.086 0.913 0.265 0.211 0.172 0.312 0.421 0.312 0.741 0 0.226-0.039 0.414-0.141 0.57-0.101 0.148-0.25 0.265-0.445 0.359l0.718 1.358v0.031h-0.734l-0.624-1.218zM48.382 25.99h0.546c0.179 0 0.312-0.047 0.406-0.133 0.087-0.085 0.141-0.204 0.141-0.335 0-0.008-0-0.017-0.001-0.025l0 0.001c0-0.156-0.047-0.281-0.133-0.375-0.094-0.086-0.234-0.133-0.414-0.133h-0.539v0.999zM52.41 26.888c0-0.125-0.047-0.226-0.133-0.297-0.144-0.093-0.31-0.168-0.487-0.216l-0.012-0.003c-0.234-0.078-0.421-0.156-0.562-0.234-0.382-0.195-0.57-0.468-0.57-0.82 0-0.18 0.055-0.336 0.156-0.476s0.242-0.258 0.437-0.336c0.187-0.078 0.398-0.117 0.64-0.117 0.234 0 0.445 0.047 0.632 0.133 0.347 0.147 0.586 0.485 0.586 0.879 0 0.007-0 0.013-0 0.020l0-0.001h-0.687c0-0.156-0.047-0.273-0.141-0.359-0.099-0.079-0.226-0.126-0.363-0.126-0.015 0-0.030 0.001-0.044 0.002l0.002-0c-0.011-0.001-0.023-0.001-0.036-0.001-0.133 0-0.255 0.041-0.356 0.112l0.002-0.001c-0.086 0.062-0.141 0.161-0.141 0.273 0 0 0 0 0 0v0c0 0.109 0.055 0.203 0.164 0.273 0.109 0.078 0.273 0.148 0.484 0.211 0.39 0.117 0.671 0.258 0.851 0.437 0.179 0.172 0.265 0.39 0.265 0.648 0 0.289-0.109 0.515-0.328 0.679-0.219 0.156-0.507 0.242-0.874 0.242-0.007 0-0.014 0-0.022 0-0.246 0-0.48-0.052-0.692-0.145l0.011 0.004c-0.382-0.144-0.648-0.506-0.648-0.93 0-0.008 0-0.016 0-0.023l-0 0.001h0.687c0 0.367 0.219 0.546 0.663 0.546 0.156 0 0.289-0.023 0.382-0.094 0.086-0.062 0.133-0.156 0.133-0.281z"></path>
</symbol>

<symbol id="company3" viewBox="0 0 31 32">
<path d="M4.838 30.857h0.030l0.030 0.023 0.152 0.152c-0.122 0.13-0.274 0.229-0.442 0.305-0.198 0.076-0.411 0.114-0.625 0.107-0.198 0-0.404-0.030-0.587-0.099-0.336-0.131-0.597-0.39-0.728-0.715l-0.003-0.009c-0.067-0.167-0.105-0.36-0.105-0.562 0-0.209 0.041-0.409 0.116-0.591l-0.004 0.010c0.148-0.339 0.426-0.599 0.768-0.721l0.009-0.003c0.177-0.066 0.381-0.104 0.594-0.104 0.205 0 0.402 0.035 0.584 0.1l-0.012-0.004c0.152 0.061 0.305 0.152 0.427 0.251l-0.137 0.175c-0.008 0.012-0.019 0.022-0.030 0.030l-0 0c-0.011 0.006-0.024 0.009-0.038 0.009-0.005 0-0.011-0.001-0.016-0.002l0.001 0c-0.020-0.001-0.038-0.007-0.054-0.016l0.001 0-0.076-0.046-0.099-0.061c-0.142-0.073-0.309-0.115-0.486-0.115-0.017 0-0.033 0-0.050 0.001l0.002-0c-0.152 0-0.305 0.023-0.442 0.076-0.133 0.050-0.247 0.122-0.343 0.214l0-0c-0.093 0.093-0.168 0.205-0.219 0.329l-0.002 0.007c-0.053 0.152-0.076 0.305-0.076 0.457s0.023 0.305 0.076 0.457c0.053 0.122 0.122 0.229 0.221 0.335 0.091 0.091 0.198 0.16 0.328 0.206 0.122 0.053 0.259 0.076 0.404 0.076 0.076 0 0.152 0 0.229-0.015 0.204-0.019 0.385-0.102 0.527-0.229l-0.001 0.001c0.019-0.021 0.046-0.035 0.076-0.038l0.001-0zM9.364 30.050c0 0.19-0.038 0.381-0.107 0.564-0.070 0.171-0.171 0.315-0.296 0.434l-0.001 0.001c-0.13 0.13-0.29 0.229-0.457 0.29-0.389 0.137-0.815 0.137-1.196 0-0.349-0.126-0.622-0.389-0.759-0.723l-0.003-0.009c-0.137-0.358-0.137-0.762 0-1.128 0.076-0.16 0.168-0.305 0.305-0.442 0.13-0.122 0.282-0.213 0.457-0.274 0.381-0.137 0.808-0.137 1.189 0 0.347 0.126 0.619 0.386 0.759 0.715l0.003 0.009c0.076 0.183 0.107 0.373 0.107 0.564zM8.952 30.050c0-0.152-0.023-0.305-0.076-0.457-0.094-0.254-0.289-0.451-0.535-0.546l-0.006-0.002c-0.129-0.047-0.279-0.075-0.434-0.075s-0.305 0.027-0.443 0.078l0.009-0.003c-0.254 0.099-0.449 0.299-0.539 0.55l-0.002 0.006c-0.099 0.297-0.099 0.61 0 0.907 0.093 0.255 0.288 0.452 0.535 0.546l0.006 0.002c0.282 0.091 0.587 0.091 0.869 0 0.122-0.046 0.236-0.122 0.328-0.213 0.099-0.099 0.168-0.213 0.213-0.335 0.053-0.152 0.076-0.305 0.076-0.457zM12.45 30.53l0.038 0.099 0.046-0.099 0.053-0.107 1.006-1.676c0.015-0.030 0.030-0.046 0.053-0.053 0.019-0.005 0.040-0.008 0.063-0.008 0.005 0 0.009 0 0.014 0l-0.001-0h0.305v2.735h-0.35v-2.194l-1.013 1.707c-0.012 0.025-0.030 0.046-0.053 0.061l-0.001 0c-0.024 0.014-0.053 0.023-0.085 0.023-0.002 0-0.005-0-0.007-0h-0.053c-0.031-0-0.060-0.009-0.085-0.023l0.001 0c-0.026-0.014-0.047-0.035-0.061-0.060l-0-0.001-1.036-1.714v2.194h-0.343v-2.728h0.305l0.076 0.008c0.023 0.008 0.046 0.030 0.053 0.053l1.021 1.676 0.053 0.107zM16.221 30.392v1.021h-0.396v-2.728h0.876c0.168 0 0.328 0.015 0.488 0.061 0.13 0.030 0.244 0.091 0.343 0.168 0.091 0.076 0.152 0.168 0.198 0.267 0.046 0.114 0.069 0.229 0.069 0.35s-0.023 0.236-0.076 0.35c-0.051 0.11-0.123 0.201-0.212 0.273l-0.001 0.001c-0.099 0.076-0.213 0.137-0.343 0.175-0.152 0.046-0.312 0.076-0.472 0.069l-0.472-0.008zM16.221 30.095h0.472c0.099 0 0.206-0.008 0.305-0.038 0.076-0.030 0.152-0.069 0.221-0.122 0.055-0.047 0.099-0.106 0.128-0.172l0.001-0.003c0.030-0.076 0.046-0.152 0.046-0.229s0-0.152-0.038-0.229c-0.033-0.072-0.079-0.133-0.136-0.182l-0.001-0.001c-0.152-0.107-0.335-0.16-0.533-0.152h-0.465v1.128zM21.486 31.421h-0.305c-0.002 0-0.003 0-0.005 0-0.033 0-0.063-0.012-0.087-0.031l0 0c-0.022-0.016-0.040-0.036-0.053-0.060l-0-0.001-0.267-0.663h-1.333l-0.282 0.663c-0.010 0.024-0.026 0.045-0.045 0.061l-0 0c-0.023 0.018-0.052 0.030-0.084 0.030h-0.313l1.173-2.743h0.411l1.189 2.743zM19.543 30.4h1.112l-0.472-1.112c-0.029-0.068-0.058-0.152-0.081-0.238l-0.003-0.013-0.046 0.137-0.046 0.122-0.457 1.105zM23.177 28.693l0.061 0.053 1.714 2.057v-2.118h0.35v2.735h-0.198c-0.023 0-0.053-0.008-0.076-0.023-0.024-0.012-0.044-0.027-0.061-0.046l-0-0-1.714-2.057v2.126h-0.35v-2.743h0.206l0.076 0.015zM28.19 30.324v1.090h-0.389v-1.082l-1.082-1.646h0.35c0.030 0 0.061 0 0.076 0.023 0.024 0.017 0.044 0.037 0.060 0.060l0 0.001 0.678 1.067c0.040 0.066 0.078 0.144 0.11 0.225l0.004 0.011 0.053-0.114 0.069-0.13 0.663-1.067c0.015-0.023 0.033-0.043 0.053-0.061l0-0c0.021-0.015 0.046-0.023 0.074-0.023 0.003 0 0.007 0 0.010 0l-0-0h0.358l-1.090 1.646zM12.259 24.099l0.518 0.046c2.648-1.092 4.831-2.859 6.4-5.089l0.031-0.046c1.432-2.041 2.288-4.577 2.288-7.313 0-0.089-0.001-0.177-0.003-0.266l0 0.013-2.918-2.69c0.594 2.85 0.312 5.79-0.8 8.503-1.197 2.811-3.089 5.13-5.467 6.809l-0.050 0.033z"></path>
<path d="M11.215 23.97l0.076 0.015c2.667-1.752 4.693-4.213 5.829-7.048 0.639-1.546 1.010-3.341 1.010-5.222 0-1.289-0.174-2.537-0.5-3.722l0.023 0.098-4.145-3.832c1.299 2.369 2.063 5.192 2.063 8.192 0 0.695-0.041 1.38-0.121 2.053l0.008-0.082c-0.459 3.693-1.987 6.965-4.262 9.568l0.018-0.021zM25.295 14.606c-0.78 3.079-2.51 5.675-4.855 7.528l-0.029 0.022c-0.724 0.579-1.501 1.097-2.324 1.539 2.082-0.57 3.888-1.543 5.415-2.836l-0.020 0.017c1.497-1.263 2.684-2.844 3.466-4.642l0.032-0.082-1.684-1.547z"></path>
<path d="M24.632 14.171l-2.4-2.21c-0.056 2.668-0.888 5.131-2.278 7.186l0.030-0.047c-1.477 2.179-3.457 3.913-5.779 5.058l-0.087 0.039h0.015c0.533 0 1.067-0.030 1.6-0.091 2.299-0.869 4.245-2.215 5.795-3.927l0.011-0.013c1.483-1.637 2.566-3.663 3.076-5.908l0.017-0.089zM11.566 2.644l-2.865-2.644c-2.574 0.917-4.718 2.511-6.284 4.569l-0.024 0.033c-1.478 1.947-2.374 4.406-2.392 7.074l-0 0.004c0.024 2.956 1.116 5.652 2.908 7.726l-0.013-0.015c1.891 2.181 4.433 3.753 7.321 4.416l0.093 0.018c2.5-2.765 4.116-6.372 4.378-10.348l0.003-0.052c0.229-3.81-0.869-7.589-3.124-10.781zM31.238 13.768c-0.039-3.505-1.564-6.646-3.974-8.829l-0.010-0.009c-2.539-2.278-5.912-3.671-9.611-3.671-1.728 0-3.385 0.304-4.92 0.861l0.1-0.032 17.509 16.152c0.571-1.318 0.904-2.852 0.907-4.464v-0.001z"></path>
</symbol>

<symbol id="company2" viewBox="0 0 25 32">
<path d="M10.449 1.803h0.080c0.16 0 0.326 0.018 0.492 0.031 0.738 0.055 1.465 0.166 2.178 0.332v-1.766c-0.947-0.251-2.034-0.396-3.155-0.4h-0.267c-1.52 0-3.040 0.203-4.511 0.585-1.817 0.457-3.414 1.122-4.879 1.985l0.086-0.047v17.477c2.429-1.34 5.297-2.197 8.348-2.367l0.052-0.002h0.049c0.215-0.012 0.431-0.018 0.658-0.018v-1.785c-2.412 0.026-4.717 0.452-6.862 1.215l0.148-0.046-0.622 0.209v-13.618l0.265-0.123c2.126-1.033 4.621-1.649 7.257-1.68l0.010-0h0.283l0.388 0.012z"></path>
<path d="M14.837 3.649c-0.003 0-0.007 0-0.010 0-1.209 0-2.386-0.135-3.518-0.389l0.107 0.020v17.268c1.12 0.277 2.277 0.412 3.428 0.406 1.52-0.006 3.040-0.203 4.511-0.578 1.82-0.461 3.418-1.13 4.885-1.997l-0.085 0.047v-17.163c-1.314 0.73-2.835 1.341-4.437 1.755l-0.136 0.030c-1.551 0.394-3.138 0.597-4.738 0.603zM21.748 3.951l0.615-0.209v13.631l-0.265 0.123c-2.15 1.048-4.678 1.661-7.349 1.661-0.394 0-0.784-0.013-1.172-0.040l0.052 0.003-0.431-0.037v-14.018l0.498 0.031c0.331 0.019 0.717 0.029 1.107 0.029 2.485 0 4.87-0.43 7.084-1.22l-0.147 0.046zM1.686 25.975c-0.168-0.171-0.401-0.278-0.66-0.278-0.012 0-0.025 0-0.037 0.001l0.002-0c-0.135 0-0.271 0.025-0.4 0.074-0.346 0.139-0.586 0.471-0.586 0.859 0 0.016 0 0.032 0.001 0.048l-0-0.002v2.338c0 0.16 0.025 0.326 0.092 0.474 0.062 0.123 0.135 0.228 0.234 0.314 0.092 0.080 0.203 0.135 0.32 0.166s0.234 0.049 0.351 0.049c0.536-0.010 0.966-0.447 0.966-0.984 0-0 0-0 0-0v0-0.258h-0.615v0.203c0.006 0.074 0 0.148-0.031 0.209-0.020 0.053-0.049 0.098-0.086 0.135v0c-0.069 0.053-0.157 0.085-0.252 0.086h-0c-0.012 0.002-0.027 0.003-0.041 0.003-0.102 0-0.192-0.049-0.248-0.125l-0.001-0.001c-0.054-0.084-0.086-0.187-0.086-0.297 0-0.006 0-0.012 0-0.018l-0 0.001v-2.178c0-0.123 0.025-0.24 0.080-0.345 0.055-0.087 0.151-0.144 0.26-0.144 0.012 0 0.025 0.001 0.037 0.002l-0.001-0c0.003-0 0.007-0 0.011-0 0.106 0 0.2 0.050 0.26 0.129l0.001 0.001c0.065 0.083 0.105 0.189 0.105 0.303 0 0.002 0 0.003-0 0.004v-0 0.209h0.603v-0.24c0-0.002 0-0.005 0-0.008 0-0.281-0.105-0.537-0.278-0.732l0.001 0.001zM5.311 25.951c-0.187-0.157-0.431-0.252-0.697-0.252-0.129 0-0.254 0.023-0.369 0.064l0.008-0.002c-0.123 0.043-0.228 0.105-0.326 0.185-0.098 0.098-0.185 0.209-0.234 0.332-0.062 0.142-0.092 0.295-0.086 0.455v2.234c-0.006 0.16 0.025 0.314 0.086 0.462 0.055 0.123 0.135 0.228 0.234 0.308 0.098 0.092 0.203 0.16 0.326 0.203 0.108 0.040 0.233 0.063 0.363 0.063s0.255-0.023 0.37-0.066l-0.007 0.002c0.38-0.131 0.648-0.486 0.648-0.904 0-0.022-0.001-0.044-0.002-0.066l0 0.003v-2.24c0.001-0.013 0.001-0.028 0.001-0.043 0-0.291-0.123-0.553-0.32-0.738l-0.001-0.001zM5.028 28.966c0.001 0.011 0.002 0.023 0.002 0.036 0 0.114-0.048 0.217-0.125 0.29l-0 0c-0.078 0.066-0.179 0.105-0.289 0.105s-0.212-0.040-0.29-0.106l0.001 0.001c-0.077-0.073-0.125-0.176-0.125-0.29 0-0.013 0.001-0.025 0.002-0.038l-0 0.002v-2.234c-0.001-0.011-0.002-0.023-0.002-0.036 0-0.114 0.048-0.217 0.125-0.29l0-0c0.078-0.066 0.179-0.105 0.289-0.105s0.212 0.040 0.29 0.106l-0.001-0.001c0.077 0.073 0.125 0.176 0.125 0.29 0 0.013-0.001 0.025-0.002 0.038l0-0.002v2.234zM10.074 29.969v-4.246h-0.591l-0.769 2.246h-0.012l-0.775-2.246h-0.578v4.24h0.603v-2.585h0.012l0.591 1.828h0.308l0.597-1.822h0.006v2.578h0.609zM13.514 26.031c-0.092-0.111-0.209-0.185-0.345-0.234-0.12-0.039-0.259-0.062-0.403-0.062-0.012 0-0.024 0-0.036 0l0.002-0h-0.898v4.234h0.603v-1.662h0.308c0.191 0.012 0.375-0.025 0.548-0.111 0.244-0.153 0.417-0.4 0.467-0.689l0.001-0.006c0.024-0.143 0.037-0.307 0.037-0.474 0-0.216-0.023-0.426-0.066-0.629l0.004 0.020c-0.042-0.154-0.119-0.287-0.222-0.394l0 0zM13.206 27.323c-0.006 0.074-0.025 0.148-0.062 0.215-0.031 0.062-0.086 0.123-0.154 0.148-0.078 0.039-0.171 0.062-0.269 0.062-0.005 0-0.010-0-0.015-0h-0.276v-1.446h0.308c0.098 0 0.185 0.012 0.277 0.055 0.062 0.031 0.111 0.086 0.142 0.154 0.030 0.069 0.048 0.149 0.049 0.233v0.579zM16.369 25.729h-0.492l-0.923 4.24h0.603l0.178-0.911h0.818l0.185 0.911h0.597l-0.954-4.24zM15.815 28.48l0.295-1.538h0.012l0.295 1.538h-0.603zM20.277 28.283h-0.012l-0.911-2.554h-0.578v4.24h0.603v-2.548h0.012l0.917 2.548h0.566v-4.246h-0.603v2.554zM23.969 25.729l-0.492 1.686h-0.006l-0.492-1.686h-0.634l0.831 2.449v1.785h0.603v-1.785l0.831-2.449h-0.64zM0 31.163h0.289v0.818h0.203v-0.818h0.289v-0.166h-0.782v0.166zM2.449 30.997l-0.382 0.985h0.209l0.080-0.222h0.394l0.080 0.222h0.215l-0.388-0.985h-0.209zM2.418 31.594l0.129-0.369 0.135 0.369h-0.265zM4.862 31.618h0.234v0.123c-0.063 0.052-0.145 0.085-0.234 0.086h-0c-0.005 0-0.011 0.001-0.017 0.001-0.078 0-0.147-0.036-0.192-0.092l-0-0c-0.047-0.066-0.074-0.148-0.074-0.236 0-0.008 0-0.016 0.001-0.023l-0 0.001c0-0.215 0.092-0.326 0.283-0.326 0.006-0.001 0.013-0.001 0.020-0.001 0.096 0 0.177 0.065 0.202 0.153l0 0.001 0.197-0.037c-0.043-0.191-0.185-0.289-0.418-0.289-0.006-0-0.012-0-0.019-0-0.125 0-0.24 0.047-0.327 0.124l0-0c-0.088 0.087-0.143 0.208-0.143 0.342 0 0.014 0.001 0.028 0.002 0.041l-0-0.002c0 0.135 0.037 0.271 0.123 0.369 0.088 0.092 0.211 0.149 0.347 0.149 0.010 0 0.020-0 0.030-0.001l-0.001 0c0.154 0 0.308-0.055 0.418-0.16v-0.388h-0.431v0.166zM7.335 30.997h-0.197v0.985h0.689v-0.166h-0.492v-0.818zM9.428 30.997h-0.203v0.985h0.203v-0.985zM11.471 31.655l-0.406-0.658h-0.191v0.985h0.185v-0.64l0.394 0.64h0.197v-0.985h-0.185v0.658zM13.317 31.551h0.492v-0.166h-0.492v-0.222h0.523v-0.166h-0.726v0.985h0.751v-0.166h-0.554v-0.265zM17.791 31.385h-0.388v-0.388h-0.197v0.985h0.197v-0.431h0.388v0.431h0.197v-0.985h-0.197v0.388zM19.649 31.551h0.492v-0.166h-0.492v-0.222h0.529v-0.166h-0.726v0.985h0.745v-0.166h-0.548v-0.265zM22.166 31.551c0.172-0.031 0.258-0.123 0.258-0.277 0.001-0.008 0.002-0.018 0.002-0.028 0-0.076-0.037-0.144-0.093-0.187l-0.001-0c-0.074-0.039-0.162-0.063-0.256-0.063-0.012 0-0.023 0-0.035 0.001l0.002-0h-0.418v0.985h0.197v-0.412h0.043c0.037 0 0.080 0.006 0.123 0.025 0.025 0.018 0.049 0.043 0.062 0.074l0.222 0.308h0.234l-0.123-0.185c-0.049-0.098-0.123-0.185-0.215-0.246zM21.969 31.415h-0.148v-0.246h0.154c0.074-0.006 0.142 0 0.203 0.018 0.029 0.023 0.048 0.058 0.048 0.097 0 0.023-0.006 0.045-0.017 0.063l0-0.001c-0.009 0.017-0.022 0.032-0.037 0.043l-0 0c-0.050 0.016-0.108 0.026-0.168 0.026-0.012 0-0.025-0-0.037-0.001l0.002 0zM24.062 31.551h0.492v-0.166h-0.492v-0.222h0.535v-0.166h-0.726v0.985h0.745v-0.166h-0.554v-0.265z"></path>
</symbol>

<symbol id="company1" viewBox="0 0 30 32">
<path d="M4 0l4.867 4.467h13.6v12.467l4.867 4.467v-21.4h-23.333z"></path>
<path d="M0 4.28v20.787h22.667v-8.267l-13.653-12.507-9.013-0.013zM18.347 22.027h-14.76v-13.98h1.047v13.033h13.713v0.947zM6.533 28.993l0.533-1.127h0.467l-0.8 1.5v0.867h-0.413v-0.867l-0.8-1.5h0.467l0.54 1.127zM8.867 29.687h-0.92l-0.187 0.553h-0.433l0.9-2.373h0.367l0.9 2.373h-0.433l-0.193-0.553zM8.067 29.353h0.687l-0.347-0.98-0.34 0.98zM10.493 29.6c-0-0.003-0-0.006-0-0.008 0-0.108 0.032-0.209 0.088-0.294l-0.001 0.002c0.060-0.093 0.18-0.2 0.353-0.333-0.075-0.086-0.141-0.182-0.196-0.285l-0.004-0.008c-0.030-0.068-0.047-0.146-0.047-0.229 0-0.001 0-0.003 0-0.004v0c0-0.187 0.053-0.333 0.167-0.44 0.113-0.113 0.267-0.167 0.46-0.167 0.006-0 0.012-0 0.019-0 0.154 0 0.295 0.058 0.402 0.154l-0.001-0c0.113 0.1 0.167 0.227 0.167 0.38 0 0.093-0.027 0.187-0.073 0.267-0.053 0.087-0.133 0.167-0.247 0.253l-0.16 0.113 0.453 0.54c0.067-0.133 0.1-0.267 0.1-0.433h0.347c0 0.293-0.067 0.533-0.207 0.72l0.347 0.413h-0.46l-0.133-0.16c-0.167 0.127-0.367 0.193-0.6 0.193-0.24 0-0.427-0.067-0.567-0.187-0.127-0.114-0.207-0.279-0.207-0.463 0-0.009 0-0.017 0.001-0.025l-0 0.001zM11.273 29.953c0.142-0.001 0.272-0.051 0.374-0.134l-0.001 0.001-0.513-0.607-0.053 0.033c-0.133 0.1-0.2 0.213-0.2 0.333 0 0.113 0.040 0.2 0.113 0.267 0.067 0.073 0.167 0.107 0.28 0.107zM11.060 28.427c0 0.093 0.053 0.207 0.167 0.347l0.18-0.127 0.047-0.040c0.067-0.060 0.107-0.133 0.107-0.227 0-0.067-0.027-0.12-0.073-0.16-0.044-0.041-0.104-0.067-0.169-0.067-0.004 0-0.008 0-0.012 0l0.001-0c-0.073 0-0.133 0.027-0.18 0.080-0.042 0.049-0.067 0.114-0.067 0.184 0 0.006 0 0.011 0 0.016l-0-0.001zM15.36 29.467c-0.020 0.253-0.113 0.447-0.28 0.593-0.16 0.133-0.38 0.213-0.647 0.213-0.006 0-0.012 0-0.019 0-0.178 0-0.344-0.050-0.485-0.136l0.004 0.002c-0.146-0.094-0.26-0.226-0.331-0.381l-0.002-0.006c-0.076-0.165-0.12-0.358-0.12-0.562 0-0.004 0-0.008 0-0.012v0.001-0.22c0-0.227 0.040-0.42 0.12-0.593 0.144-0.317 0.458-0.534 0.822-0.534 0.011 0 0.022 0 0.033 0.001l-0.002-0c0.26 0 0.467 0.067 0.633 0.213 0.153 0.147 0.247 0.347 0.273 0.6h-0.407c-0.020-0.167-0.067-0.287-0.153-0.367-0.080-0.073-0.2-0.113-0.347-0.113-0.18 0-0.32 0.067-0.413 0.2-0.1 0.133-0.147 0.32-0.147 0.573v0.213c0 0.253 0.047 0.447 0.133 0.58 0.093 0.133 0.227 0.2 0.4 0.2 0.167 0 0.287-0.033 0.373-0.107 0.080-0.067 0.133-0.193 0.153-0.36h0.407zM17.627 29.113c0 0.233-0.047 0.44-0.127 0.613s-0.193 0.307-0.34 0.4c-0.153 0.1-0.32 0.147-0.52 0.147-0.187 0-0.36-0.047-0.513-0.14-0.151-0.098-0.27-0.234-0.344-0.394l-0.002-0.006c-0.080-0.172-0.127-0.373-0.127-0.585 0-0.005 0-0.011 0-0.016v0.001-0.133c0-0.24 0.047-0.44 0.127-0.62 0.080-0.173 0.2-0.307 0.347-0.4 0.147-0.1 0.32-0.147 0.513-0.147 0.009-0 0.020-0 0.031-0 0.368 0 0.685 0.22 0.827 0.535l0.002 0.006c0.080 0.173 0.12 0.38 0.12 0.607v0.133zM17.213 28.993c0-0.267-0.053-0.467-0.153-0.6-0.089-0.13-0.236-0.214-0.403-0.214-0.006 0-0.012 0-0.018 0l0.001-0c-0.18 0-0.32 0.067-0.42 0.207-0.1 0.133-0.147 0.333-0.153 0.593v0.133c0 0.267 0.053 0.467 0.153 0.6 0.1 0.147 0.24 0.22 0.42 0.22 0.187 0 0.327-0.067 0.42-0.207 0.1-0.14 0.153-0.347 0.153-0.613v-0.12z"></path>
</symbol>

<symbol id="linkedin" viewBox="0 0 32 32">
<path d="M32 32v-11.744c0-5.728-1.232-10.16-7.952-10.16-0.076-0.003-0.166-0.005-0.256-0.005-2.555 0-4.788 1.376-5.999 3.428l-0.018 0.032h-0.096v-2.912h-6.368v21.36h6.64v-10.576c0-2.784 0.528-5.488 3.968-5.488 3.408 0 3.456 3.184 3.456 5.664v10.4h6.624zM0.528 10.64h6.64v21.36h-6.64v-21.36zM3.84 0c-2.121 0-3.84 1.719-3.84 3.84v0c-0 0.005-0 0.010-0 0.016 0 2.127 1.715 3.854 3.838 3.872h0.002c2.128 0 3.84-1.76 3.84-3.888 0-2.121-1.719-3.84-3.84-3.84v0z"></path>
</symbol>

<symbol id="instagram" viewBox="0 0 32 32">
<path d="M31.968 9.408c-0.024-1.403-0.292-2.735-0.763-3.968l0.027 0.080c-0.427-1.109-1.058-2.054-1.854-2.83l-0.002-0.002c-0.8-0.8-1.76-1.44-2.832-1.84-1.151-0.448-2.483-0.721-3.875-0.752l-0.013-0c-1.458-0.070-3.167-0.109-4.885-0.109-0.6 0-1.199 0.005-1.797 0.014l0.090-0.001c-4.352 0-4.896 0.016-6.592 0.096-1.712 0.064-2.88 0.352-3.888 0.736-1.072 0.416-2.032 1.040-2.832 1.856-0.816 0.8-1.44 1.76-1.856 2.832-0.443 1.152-0.711 2.485-0.736 3.877l-0 0.011c-0.070 1.458-0.109 3.167-0.109 4.885 0 0.6 0.005 1.199 0.014 1.797l-0.001-0.090c0 4.352 0 4.896 0.080 6.592 0.030 1.405 0.303 2.737 0.779 3.968l-0.027-0.080c0.4 1.072 1.040 2.032 1.856 2.832 0.8 0.816 1.76 1.44 2.832 1.856 1.008 0.384 2.176 0.656 3.872 0.736 1.712 0.080 2.24 0.096 6.592 0.096s4.896-0.016 6.608-0.096c1.397-0.026 2.724-0.294 3.952-0.763l-0.080 0.027c2.16-0.851 3.837-2.528 4.669-4.633l0.019-0.055c0.384-1.024 0.672-2.176 0.736-3.888 0.080-1.696 0.096-2.24 0.096-6.592 0-4.336 0-4.88-0.080-6.592zM29.088 22.48c-0.064 1.552-0.32 2.4-0.544 2.96-0.552 1.401-1.639 2.488-3.004 3.027l-0.036 0.013c-0.56 0.224-1.424 0.48-2.976 0.544-1.68 0.080-2.192 0.096-6.464 0.096-0.465 0.007-1.013 0.011-1.562 0.011-1.724 0-3.439-0.039-5.144-0.116l0.242 0.009c-1.568-0.064-2.4-0.32-2.96-0.544-0.722-0.271-1.337-0.68-1.839-1.199l-0.001-0.001c-0.518-0.5-0.926-1.108-1.189-1.79l-0.011-0.034c-0.336-0.884-0.535-1.905-0.544-2.972l-0-0.004c-0.068-1.463-0.107-3.179-0.107-4.903 0-0.549 0.004-1.097 0.012-1.643l-0.001 0.083c0-4.272 0.016-4.784 0.096-6.464 0.064-1.568 0.32-2.4 0.544-2.976 0.256-0.688 0.656-1.312 1.2-1.824 0.504-0.519 1.118-0.928 1.806-1.189l0.034-0.011c0.56-0.224 1.408-0.48 2.976-0.544 1.68-0.080 2.192-0.096 6.448-0.096 4.288 0 4.8 0 6.464 0.096 1.568 0.064 2.4 0.32 2.976 0.544 0.688 0.256 1.328 0.656 1.84 1.2 0.528 0.512 0.944 1.136 1.2 1.824 0.208 0.576 0.48 1.424 0.544 2.976 0.080 1.68 0.096 2.192 0.096 6.464s-0.016 4.768-0.096 6.464z"></path>
<path d="M16.064 7.776c-4.542 0-8.224 3.682-8.224 8.224s3.682 8.224 8.224 8.224v0c4.542 0 8.224-3.682 8.224-8.224s-3.682-8.224-8.224-8.224v0zM16.064 21.328c-2.943 0-5.328-2.385-5.328-5.328s2.385-5.328 5.328-5.328v0c2.943 0 5.328 2.385 5.328 5.328s-2.385 5.328-5.328 5.328v0zM26.528 7.456c0 1.060-0.86 1.92-1.92 1.92s-1.92-0.86-1.92-1.92v0c0-1.060 0.86-1.92 1.92-1.92s1.92 0.86 1.92 1.92v0z"></path>
</symbol>

<symbol id="check" viewBox="0 0 32 32">
<path fill="#fff" style="fill: var(--color1, #fff); stroke: var(--color1, #fff)" stroke="#fff" stroke-linejoin="miter" stroke-linecap="butt" stroke-miterlimit="4" stroke-width="0.4267" d="M8.442 16.537l-0.147-0.14-2.205 2.088 7.767 7.41 16.318-15.567-2.19-2.089-14.128 13.465-5.416-5.167z"></path>
</symbol>

<symbol id="person-phone" viewBox="0 0 32 32">
<path d="M24.889 19.769l-3.271-0.356c-0.782-0.107-1.564 0.178-2.116 0.711l-2.364 2.382c-3.67-1.894-6.586-4.81-8.429-8.372l-0.051-0.108 2.382-2.382c0.551-0.551 0.818-1.333 0.729-2.116l-0.356-3.236c-0.156-1.288-1.243-2.276-2.56-2.276-0.006 0-0.012 0-0.019 0h-2.221c-1.458 0-2.667 1.209-2.578 2.667 0.716 10.991 9.453 19.729 20.38 20.441l0.065 0.003c1.458 0.089 2.667-1.12 2.667-2.578v-2.222c0-1.316-0.96-2.4-2.258-2.56z"></path>
</symbol>

<symbol id="person-name" viewBox="0 0 32 32">
<path d="M16 16c2.946 0 5.333-2.388 5.333-5.333s-2.388-5.333-5.333-5.333v0c-2.946 0-5.333 2.388-5.333 5.333s2.388 5.333 5.333 5.333v0zM16 18.667c-3.556 0-10.667 1.778-10.667 5.333v1.333c0 0.729 0.604 1.333 1.333 1.333h18.667c0.729 0 1.333-0.604 1.333-1.333v-1.333c0-3.556-7.111-5.333-10.667-5.333z"></path>
</symbol>

<symbol id="person-email" viewBox="0 0 32 32">
<path d="M26.667 5.333h-21.333c-1.476 0-2.667 1.191-2.667 2.667v16c0 1.458 1.191 2.667 2.667 2.667h21.333c1.458 0 2.667-1.209 2.667-2.667v-16c0-1.476-1.209-2.667-2.667-2.667zM26.133 11.004l-9.422 5.884c-0.202 0.127-0.448 0.202-0.711 0.202s-0.509-0.075-0.717-0.206l0.006 0.003-9.422-5.867c-0.364-0.195-0.607-0.572-0.607-1.006 0-0.628 0.509-1.138 1.138-1.138 0.255 0 0.491 0.084 0.681 0.226l-0.003-0.002 8.924 5.564 8.942-5.582c0.193-0.155 0.441-0.249 0.71-0.249 0.628 0 1.138 0.509 1.138 1.138 0 0.454-0.266 0.846-0.65 1.028l-0.007 0.003z"></path>
</symbol>

<symbol id="close" viewBox="0 0 32 32" width="11px" height="11px">
<path d="M32 3.223l-3.223-3.223-12.777 12.777-12.777-12.777-3.223 3.223 12.777 12.777-12.777 12.777 3.223 3.223 12.777-12.777 12.777 12.777 3.223-3.223-12.777-12.777 12.777-12.777z"></path>
</symbol>

<symbol id="mobile-menu" viewBox="0 0 32 32">
<path d="M6.4 11.734v-2.134h19.2v2.134h-19.2zM6.4 17.066h19.2v-2.133h-19.2v2.133zM6.4 22.4h19.2v-2.134h-19.2v2.134z"></path>
</symbol>
<symbol id="close-menu" viewBox="0 0 32 32">
<path d="M23.734 10.304l-1.504-1.504-5.963 5.962-5.962-5.962-1.504 1.504 5.962 5.962-5.962 5.963 1.504 1.504 5.962-5.963 5.963 5.963 1.504-1.504-5.963-5.963 5.963-5.962z"></path>
</symbol>

</defs>
</svg>
